<svg width="64" height="64" viewBox="0 0 64 64" fill="none" xmlns="http://www.w3.org/2000/svg">
<rect width="64" height="64" rx="8" fill="#82E572"/>
<path d="M18.1666 41.4584C18.1666 42.4087 18.5441 43.3202 19.2161 43.9922C19.8881 44.6642 20.7996 45.0417 21.7499 45.0417C22.7003 45.0417 23.6117 44.6642 24.2837 43.9922C24.9557 43.3202 25.3333 42.4087 25.3333 41.4584M18.1666 41.4584C18.1666 40.508 18.5441 39.5966 19.2161 38.9246C19.8881 38.2526 20.7996 37.875 21.7499 37.875C22.7003 37.875 23.6117 38.2526 24.2837 38.9246C24.9557 39.5966 25.3333 40.508 25.3333 41.4584M18.1666 41.4584H14.5833V21.75C14.5833 21.2749 14.772 20.8191 15.108 20.4831C15.444 20.1471 15.8997 19.9584 16.3749 19.9584H41.4583C43.8342 19.9584 46.1127 21.2797 47.7928 23.6317C49.4728 25.9838 50.4166 29.1738 50.4166 32.5M25.3333 41.4584H39.6666M39.6666 41.4584C39.6666 42.4087 40.0441 43.3202 40.7161 43.9922C41.3881 44.6642 42.2996 45.0417 43.2499 45.0417C44.2003 45.0417 45.1117 44.6642 45.7837 43.9922C46.4557 43.3202 46.8333 42.4087 46.8333 41.4584M39.6666 41.4584C39.6666 40.508 40.0441 39.5966 40.7161 38.9246C41.3881 38.2526 42.2996 37.875 43.2499 37.875C44.2003 37.875 45.1117 38.2526 45.7837 38.9246C46.4557 39.5966 46.8333 40.508 46.8333 41.4584M46.8333 41.4584H50.4166V32.5M50.4166 32.5H42.3541L39.6666 19.9584M14.5833 28.9167H41.4583M23.5416 19.9584V28.9167M32.4999 19.9584V28.9167" stroke="#030712" stroke-width="1.5" stroke-linecap="round" stroke-linejoin="round"/>
</svg>
